<?xml version="1.0" encoding="UTF-8"?>
<svg version="1.1" xmlns="http://www.w3.org/2000/svg" width="1000" height="945">
<path d="M0 0 C0.58120605 0.48210937 1.16241211 0.96421875 1.76123047 1.4609375 C9.16196417 7.60382222 16.3497804 13.94733145 23.38720703 20.50488281 C25.10175551 22.09433103 26.82940967 23.66868111 28.55859375 25.2421875 C37.23946517 33.18399483 45.39064043 41.50642314 53.33544922 50.18261719 C54.83318565 51.81786946 56.33868715 53.44543473 57.84765625 55.0703125 C63.48362558 61.18538278 68.82932278 67.48849427 74 74 C74.75772705 74.94891113 74.75772705 74.94891113 75.53076172 75.91699219 C122.43493538 134.80701821 156.39342976 202.76440197 174 276 C174.25974609 277.07491699 174.51949219 278.14983398 174.78710938 279.25732422 C178.12481921 293.31897212 180.67970202 307.45432702 182.75 321.75 C182.85105042 322.43738251 182.95210083 323.12476501 183.05621338 323.83297729 C186.33655495 346.40791306 187.38029565 368.88958842 187.3125 391.6875 C187.30976578 393.60230164 187.30976578 393.60230164 187.30697632 395.55578613 C187.26285629 413.91374235 186.81375562 431.83493017 184 450 C183.66792149 452.37108713 183.33589215 454.74218115 183.00390625 457.11328125 C171.06046377 538.25370884 136.39140484 617.62738724 84.5 681.125 C83.94812012 681.80240234 83.39624023 682.47980469 82.82763672 683.17773438 C79.07035824 687.76207299 75.21313684 692.23432926 71.1953125 696.59375 C69.95880787 697.94906468 68.73117095 699.31302873 67.53588867 700.70483398 C62.6297467 706.41732771 57.39761725 711.75139678 52.0625 717.0625 C51.20720703 717.92166016 50.35191406 718.78082031 49.47070312 719.66601562 C44.47654256 724.65255734 39.38703038 729.44132084 34 734 C33.36489502 734.54180908 32.72979004 735.08361816 32.07543945 735.6418457 C11.52703338 753.06550987 -10.48575278 768.10472811 -34.1484375 780.98388672 C-35.89087991 781.94011632 -37.61792185 782.92425676 -39.34375 783.91015625 C-87.97761441 811.07150025 -146.97893645 826.28275307 -202.66015625 826.3359375 C-204.30415447 826.34240513 -205.94815167 826.34913597 -207.59214783 826.35610962 C-211.01824594 826.36796881 -214.4442442 826.37180302 -217.87036133 826.37060547 C-221.30514884 826.3704442 -224.73939569 826.38414829 -228.17407227 826.41162109 C-326.27833684 827.18390348 -420.09651871 794.69791368 -494.65063477 723.51733398 C-499.65986494 718.57176361 -504.29044133 713.45809873 -508.65698242 707.92529297 C-510.95363087 705.05789256 -513.32415922 702.26910757 -515.7109375 699.4765625 C-520.94406864 693.25589436 -525.5366118 686.66728627 -530 679.875 C-530.38874298 679.28706665 -530.77748596 678.6991333 -531.17800903 678.09338379 C-537.62861846 668.32418219 -543.70704011 658.44929884 -549 648 C-549.43860352 647.14051758 -549.87720703 646.28103516 -550.32910156 645.39550781 C-578.29030255 590.1179134 -591.5254994 525.9393412 -589 464 C-588.95891113 462.97116699 -588.91782227 461.94233398 -588.87548828 460.88232422 C-585.17971378 378.24102799 -552.29820027 301.84465978 -492 245 C-488.45035326 241.82449258 -484.79154087 238.88011278 -481 236 C-479.80173004 235.06164889 -478.60384002 234.12281249 -477.40625 233.18359375 C-421.61888064 189.90053082 -346.39432424 169.99739496 -276.296875 178.25390625 C-231.95756919 184.17411693 -192.78667727 202.76812875 -160 233 C-158.71609375 234.12921875 -158.71609375 234.12921875 -157.40625 235.28125 C-152.15801282 239.89716944 -147.43737013 244.60688861 -143 250 C-142.30583984 250.82564453 -142.30583984 250.82564453 -141.59765625 251.66796875 C-129.17021982 266.45072979 -118.95448023 281.89158167 -110 299 C-109.61457031 299.73138184 -109.22914063 300.46276367 -108.83203125 301.21630859 C-99.55676822 319.05852745 -92.01496072 339.05280454 -89 359 C-88.81953125 360.14210938 -88.6390625 361.28421875 -88.453125 362.4609375 C-83.11270939 406.98717831 -92.90925453 460.32371825 -119.75 496.8125 C-121.14974527 498.5553927 -122.56460786 500.28634566 -124 502 C-124.55816406 502.71929688 -125.11632812 503.43859375 -125.69140625 504.1796875 C-136.45750612 517.51408589 -152.19769685 525.61907789 -169 528 C-193.11904431 530.123629 -215.46210636 523.41824127 -234.125 507.9375 C-244.05656175 498.65537051 -250.77757049 486.90110346 -251.39672852 473.21557617 C-251.65784411 459.82675678 -246.40229564 449.62936872 -240.6550293 437.87402344 C-231.42655581 418.71740135 -228.23279243 395.85944392 -234.73828125 375.29296875 C-238.22841593 366.18404139 -242.55553384 358.3395309 -249 351 C-249.58265625 350.32324219 -250.1653125 349.64648438 -250.765625 348.94921875 C-265.81204374 332.67000519 -288.85754929 326.23813758 -310.30761719 325.07226562 C-334.86303852 324.25264398 -358.64490422 330.50306285 -378 346 C-378.87914062 346.70382812 -379.75828125 347.40765625 -380.6640625 348.1328125 C-410.34974365 373.47016852 -421.65852481 416.0107319 -424.625 453.4765625 C-428.91790138 511.62558024 -413.67267204 564.67470466 -376 610 C-373.21965105 613.21660357 -370.34426481 616.33022526 -367.42578125 619.421875 C-365.31314056 621.66719361 -363.30219384 623.9590021 -361.3125 626.3125 C-357.84581021 630.2825499 -354.06355396 633.65127091 -350 637 C-349.48969238 637.42796875 -348.97938477 637.8559375 -348.45361328 638.296875 C-338.80873778 646.36521096 -328.78452564 653.5307735 -318 660 C-317.33838867 660.39815918 -316.67677734 660.79631836 -315.99511719 661.20654297 C-286.66952386 678.52738004 -253.96639978 684.22617259 -220.375 684.25 C-219.08576126 684.25101212 -219.08576126 684.25101212 -217.77047729 684.25204468 C-174.35888524 684.19818726 -132.38312698 674.42690488 -94 654 C-93.03465332 653.49629883 -93.03465332 653.49629883 -92.04980469 652.98242188 C-75.61534193 644.36883473 -60.8239124 633.33331135 -47 621 C-46.46036621 620.52208008 -45.92073242 620.04416016 -45.36474609 619.55175781 C12.33762211 568.22693074 42.85752254 490.63794999 47.82348633 414.68139648 C48.15101396 407.85042939 48.19761088 401.02470195 48.1875 394.1875 C48.18689575 393.4251001 48.1862915 392.6627002 48.18566895 391.87719727 C48.09751983 350.59331328 41.18053878 310.11998576 28 271 C27.49992432 269.5145166 27.49992432 269.5145166 26.98974609 267.99902344 C10.93038726 221.14951509 -15.63143229 178.84536259 -48.8828125 142.33984375 C-50.29015525 140.78449632 -51.68103687 139.21408863 -53.0546875 137.62890625 C-56.82145757 133.28319681 -60.68567772 129.3833227 -65.078125 125.671875 C-66.92460944 124.06558366 -68.61533023 122.38682386 -70.3125 120.625 C-74.39197703 116.49051879 -78.87091162 112.90162093 -83.40625 109.28173828 C-85.07443983 107.94013341 -86.72531092 106.57911787 -88.375 105.21484375 C-154.03867858 51.26429156 -239.04622376 22.692075 -323.6875 22.8125 C-324.97131561 22.81390488 -324.97131561 22.81390488 -326.28106689 22.81533813 C-418.51814701 23.03280262 -509.92922512 53.1733971 -578.68359375 115.90234375 C-580.67524817 117.70591613 -582.70021857 119.45106096 -584.75 121.1875 C-593.79663169 129.07336224 -602.29335187 137.80731657 -610 147 C-610.78117188 147.89203125 -611.56234375 148.7840625 -612.3671875 149.703125 C-629.77189713 169.68129364 -644.15724159 191.87949691 -657 215 C-657.48082031 215.86302734 -657.96164062 216.72605469 -658.45703125 217.61523438 C-677.14157536 251.45940201 -690.92446891 289.17521302 -699 327 C-699.2170459 328.01078613 -699.4340918 329.02157227 -699.65771484 330.06298828 C-702.27100469 342.4517052 -704.39478101 354.90457946 -706.1875 367.4375 C-706.34234863 368.49348389 -706.49719727 369.54946777 -706.65673828 370.63745117 C-709.61263127 392.34991645 -710.35254886 414.17564303 -710.25 436.0625 C-710.24689819 437.25544678 -710.24379639 438.44839355 -710.24060059 439.67749023 C-710.18144665 459.1904878 -709.69159665 478.55837375 -708 498 C-707.9391925 498.71885376 -707.87838501 499.43770752 -707.81573486 500.17834473 C-705.10147576 532.20085487 -701.02755098 564.25651368 -694.9921875 595.828125 C-694.82944839 596.68284897 -694.66670929 597.53757294 -694.4990387 598.41819763 C-693.74071973 602.37232511 -692.9592464 606.31940434 -692.13354492 610.26000977 C-689.31912488 624.12026556 -686.91248964 641.09807094 -694 654 C-699.44327248 661.6890234 -705.57850531 667.11570106 -715 669 C-726.47711568 669.96036222 -736.34658974 667.7825348 -745.74023438 660.94287109 C-753.5623106 654.21771092 -757.73783706 644.9708002 -761.25 635.5 C-761.70834229 634.29424316 -762.16668457 633.08848633 -762.63891602 631.84619141 C-764.12598298 627.90945267 -765.56635112 623.95644668 -767 620 C-767.24232361 619.33512573 -767.48464722 618.67025146 -767.73431396 617.98522949 C-776.70567161 593.34282903 -784.14022429 568.30446254 -791 543 C-791.29777344 541.90492126 -791.29777344 541.90492126 -791.6015625 540.78771973 C-796.07857258 524.2777868 -799.8261952 507.64384933 -803.1875 490.875 C-803.34440308 490.1095285 -803.50130615 489.34405701 -803.66296387 488.5553894 C-804.91663289 482.39234652 -805.99095714 476.20752878 -807 470 C-807.31869553 468.06370224 -807.31869553 468.06370224 -807.64382935 466.08828735 C-811.73777282 440.7667705 -812.76025457 415.91063766 -812.57647705 390.29040527 C-812.5578396 386.48624996 -812.57285259 382.68251434 -812.5870657 378.87836361 C-812.8428699 294.61670685 -793.41298039 211.48416983 -691 40 C-690.25878906 39.15953125 -689.51757812 38.3190625 -688.75390625 37.453125 C-686.52368268 34.94872716 -684.26620183 32.47189212 -682 30 C-681.50306641 29.45263184 -681.00613281 28.90526367 -680.49414062 28.34130859 C-667.60502905 14.1625159 -653.72916629 1.24561739 -639 -11 C-638.4234668 -11.48146484 -637.84693359 -11.96292969 -637.25292969 -12.45898438 C-564.40385477 -72.98472715 -472.30334769 -106.11953019 -362 -117 C-361.17790039 -117.05784668 -360.35580078 -117.11569336 -359.50878906 -117.17529297 C-265.79769542 -123.49900914 -174.97112999 -102.54610416 0 0 Z " fill="#33CC00" transform="translate(812,119)"/>
</svg>
